<?xml version="1.0" standalone="no"?>
<!DOCTYPE svg PUBLIC "-//W3C//DTD SVG 20010904//EN"
 "http://www.w3.org/TR/2001/REC-SVG-20010904/DTD/svg10.dtd">
<svg version="1.0" xmlns="http://www.w3.org/2000/svg"
 width="622.000000pt" height="291.000000pt" viewBox="0 0 622.000000 291.000000"
 preserveAspectRatio="xMidYMid meet">

<g transform="translate(0.000000,291.000000) scale(0.100000,-0.100000)"
fill="#000000" stroke="none">
<path d="M1031 2479 c-127 -21 -290 -89 -417 -172 -82 -54 -224 -195 -272
-270 -68 -106 -110 -201 -158 -362 -26 -85 -26 -361 -1 -455 103 -378 334
-636 676 -755 163 -57 189 -60 566 -60 l350 0 45 30 c106 72 137 194 75 300
-26 44 -48 65 -97 92 -29 16 -72 19 -383 24 -377 6 -384 7 -500 67 -92 48
-202 161 -248 256 -63 129 -79 316 -37 451 62 198 227 352 436 405 69 18 111
20 384 20 l308 0 53 28 c75 39 112 100 113 185 0 72 -19 118 -70 171 -19 19
-51 40 -72 45 -46 13 -673 13 -751 0z"/>
<path d="M2890 2474 c-107 -23 -178 -55 -309 -138 -57 -37 -170 -152 -217
-223 -20 -31 -52 -92 -70 -137 -63 -155 -64 -169 -64 -819 0 -558 1 -590 19
-625 55 -108 174 -158 272 -115 55 25 105 66 127 107 15 28 17 89 22 626 5
595 5 595 28 651 45 108 156 203 274 235 67 18 208 18 274 0 117 -31 222 -115
272 -216 24 -50 27 -65 27 -165 0 -105 -2 -114 -33 -177 -62 -127 -173 -200
-332 -218 -116 -13 -156 -34 -208 -108 -26 -36 -39 -118 -28 -176 9 -45 54
-98 115 -134 41 -24 55 -27 132 -25 114 3 220 32 348 94 84 42 120 66 189 133
179 171 264 366 264 606 -1 211 -59 377 -190 534 -122 149 -294 253 -479 291
-92 19 -343 18 -433 -1z"/>
<path d="M4425 2471 c-50 -22 -101 -79 -115 -128 -8 -27 -10 -303 -8 -919 l3
-880 27 -42 c15 -22 49 -54 75 -69 l48 -28 690 -3 c380 -2 709 0 731 3 56 8
114 48 153 105 28 41 33 57 33 107 0 32 -5 70 -10 84 -15 37 -66 94 -110 121
l-37 23 -582 3 -583 3 -2 737 c-3 699 -4 739 -22 775 -23 48 -77 98 -119 114
-48 17 -127 15 -172 -6z"/>
</g>
</svg>
